<svg width="32" height="32" viewBox="0 0 32 32" fill="none" xmlns="http://www.w3.org/2000/svg">
<circle cx="16" cy="12.5" r="5.5" stroke="#181818" stroke-width="2" stroke-linejoin="round"/>
<path fill-rule="evenodd" clip-rule="evenodd" d="M16.0001 19C12.0862 19 8.78085 21.9021 8.04651 25.8053C8.00984 26.0002 7.84241 26.146 7.64404 26.146H6.28272C6.13252 26.146 6.01076 26.0242 6.01077 25.874C6.01078 25.8607 6.01175 25.8474 6.01372 25.8342C6.75749 20.8575 10.9203 17 16.0001 17C21.0799 17 25.2426 20.8575 25.9864 25.8342C25.9884 25.8474 25.9894 25.8607 25.9894 25.874C25.9894 26.0242 25.8676 26.146 25.7174 26.146H24.3561C24.1577 26.146 23.9903 26.0002 23.9536 25.8053C23.2193 21.9021 19.9139 19 16.0001 19Z" fill="#181818"/>
</svg>
